# xmcd
#
# Track frame offsets: 
#        150
#        11614
#        21720
#        32049
#        41035
#        50238
#        60775
#        71214
#        80775
#        91526
#        102290
#        112791
#        122526
#        134672
#        144289
#        155498
#        166048
#        176315
#        186014
#        195378
#        205448
#        213835
#        222625
#        232618
#        239889
#        250325
#        261788
#        271375
#        281790
#        290311
#        298221
#
# Disc length: 4139 seconds
#
# Revision: 1
# Processed by: cddbd v1.5.2PL0 Copyright (c) Steve Scherf et al.
# Submitted via: ExactAudioCopyFreeDBPlugin 1.0
#
DISCID=d110291f
DTITLE=Various Artist - The Other Side of Bakersfield Vol 1 - 1950s and 60s Bop
DTITLE=pers and Rockers From 'Nashville West' 
DYEAR=2014
DGENRE=Rockabilly
TTITLE0=Billy Barton - Blues in the Blue of Night
TTITLE1=Tommy Collins - Untied
TTITLE2=Alvadean Coker - We're Gonna Bop
TTITLE3=Bill Woods - Go Crazy Man
TTITLE4=Tommy Duncan - Daddyo Loves Mommyo
TTITLE5=Cliff Crofford - There Ain't Nothin' Happenin' to Me
TTITLE6=Corky Jones - Hot Dog (with Danny Dedmon)
TTITLE7=Al Coker - Don't Go Baby
TTITLE8=Bonnie Blue Bell - Let's Go
TTITLE9=Johnny Taylor  - Mixed Up Rhythm and Blues
TTITLE10=Jimmy Thomason - Now Hear This
TTITLE11=Glen Ayres and Red Simpson - Sweet Love (with Red Simpson)
TTITLE12=Billy Mize - Solid Sender
TTITLE13=Custer Bottoms - Stood Up Blues
TTITLE14=Dusty Payne - Long Time Gone
TTITLE15=Cousin Herb Henson - Up the Path and in My Door
TTITLE16=Fuzzy Owen - Arkie's Got Her Shoes On
TTITLE17=The Farmer Boys - Flash, Crash And Thunder
TTITLE18=Gene Martin - Make It Soon
TTITLE19=Buck Owens - Sweet Thing
TTITLE20=Bill Carter - I Used to Love You
TTITLE21=Ernie Kelley - Seal Rock
TTITLE22=Bob Ross And His Teens - Stingy Daddy
TTITLE23=Vancie Flowers - What a Man
TTITLE24=Joe Hall And The Corvettes - Bongo Beatin' Beatnick
TTITLE25=Wally Lewis - Loverboy
TTITLE26=Bob Orrison - Sarah Lee
TTITLE27=Albert E. Brumley, Jr. - Someone's Gonna Get Hurt
TTITLE28=Al Hendrix - Monkey Bite
TTITLE29=Merle Haggard   - Skid Row
TTITLE30=Ronnie Sessions - Scaredy-Cat
EXTD=
EXTT0=
EXTT1=
EXTT2=
EXTT3=
EXTT4=
EXTT5=
EXTT6=
EXTT7=
EXTT8=
EXTT9=
EXTT10=
EXTT11=
EXTT12=
EXTT13=
EXTT14=
EXTT15=
EXTT16=
EXTT17=
EXTT18=
EXTT19=
EXTT20=
EXTT21=
EXTT22=
EXTT23=
EXTT24=
EXTT25=
EXTT26=
EXTT27=
EXTT28=
EXTT29=
EXTT30=
PLAYORDER=
